<?xml version="1.0" encoding="UTF-8" standalone="no"?>
<!-- Created with Inkscape (http://www.inkscape.org/) -->

<svg
   xmlns:dc="http://purl.org/dc/elements/1.1/"
   xmlns:cc="http://creativecommons.org/ns#"
   xmlns:rdf="http://www.w3.org/1999/02/22-rdf-syntax-ns#"
   xmlns:svg="http://www.w3.org/2000/svg"
   xmlns="http://www.w3.org/2000/svg"
   xmlns:sodipodi="http://sodipodi.sourceforge.net/DTD/sodipodi-0.dtd"
   xmlns:inkscape="http://www.inkscape.org/namespaces/inkscape"
   width="700.56616"
   height="495.74548"
   id="svg3481"
   version="1.1"
   inkscape:version="0.48.4 r9939"
   sodipodi:docname="normal_vs_mirrored.pdf">
  <defs
     id="defs3483">
    <marker
       inkscape:stockid="Arrow1Lend"
       orient="auto"
       refY="0"
       refX="0"
       id="Arrow1Lend"
       style="overflow:visible">
      <path
         id="path4835"
         d="M 0,0 5,-5 -12.5,0 5,5 0,0 z"
         style="fill-rule:evenodd;stroke:#000000;stroke-width:1pt"
         transform="matrix(-0.8,0,0,-0.8,-10,0)"
         inkscape:connector-curvature="0" />
    </marker>
    <inkscape:path-effect
       effect="spiro"
       id="path-effect4058"
       is_visible="true" />
    <marker
       inkscape:stockid="Arrow1Lend"
       orient="auto"
       refY="0"
       refX="0"
       id="Arrow1Lend-6"
       style="overflow:visible">
      <path
         inkscape:connector-curvature="0"
         id="path4835-9"
         d="M 0,0 5,-5 -12.5,0 5,5 0,0 z"
         style="fill-rule:evenodd;stroke:#000000;stroke-width:1pt"
         transform="matrix(-0.8,0,0,-0.8,-10,0)" />
    </marker>
    <inkscape:path-effect
       effect="spiro"
       id="path-effect4058-6"
       is_visible="true" />
    <marker
       inkscape:stockid="Arrow1Lend"
       orient="auto"
       refY="0"
       refX="0"
       id="Arrow1Lend-1"
       style="overflow:visible">
      <path
         inkscape:connector-curvature="0"
         id="path4835-4"
         d="M 0,0 5,-5 -12.5,0 5,5 0,0 z"
         style="fill-rule:evenodd;stroke:#000000;stroke-width:1pt"
         transform="matrix(-0.8,0,0,-0.8,-10,0)" />
    </marker>
    <inkscape:path-effect
       effect="spiro"
       id="path-effect4058-6-4"
       is_visible="true" />
    <marker
       inkscape:stockid="Arrow1Lend"
       orient="auto"
       refY="0"
       refX="0"
       id="marker5377"
       style="overflow:visible">
      <path
         inkscape:connector-curvature="0"
         id="path5379"
         d="M 0,0 5,-5 -12.5,0 5,5 0,0 z"
         style="fill-rule:evenodd;stroke:#000000;stroke-width:1pt"
         transform="matrix(-0.8,0,0,-0.8,-10,0)" />
    </marker>
    <inkscape:path-effect
       effect="spiro"
       id="path-effect4058-8"
       is_visible="true" />
  </defs>
  <sodipodi:namedview
     id="base"
     pagecolor="#ffffff"
     bordercolor="#666666"
     borderopacity="1.0"
     inkscape:pageopacity="0.0"
     inkscape:pageshadow="2"
     inkscape:zoom="0.98994949"
     inkscape:cx="574.45238"
     inkscape:cy="161.18036"
     inkscape:document-units="px"
     inkscape:current-layer="layer1"
     showgrid="false"
     showguides="false"
     inkscape:window-width="1920"
     inkscape:window-height="1018"
     inkscape:window-x="0"
     inkscape:window-y="27"
     inkscape:window-maximized="1"
     fit-margin-top="0"
     fit-margin-left="0"
     fit-margin-right="0"
     fit-margin-bottom="0">
    <inkscape:grid
       type="xygrid"
       id="grid4050"
       empspacing="5"
       visible="true"
       enabled="true"
       snapvisiblegridlinesonly="true"
       originx="-24.415946px"
       originy="-529.86131px" />
  </sodipodi:namedview>
  <metadata
     id="metadata3486">
    <rdf:RDF>
      <cc:Work
         rdf:about="">
        <dc:format>image/svg+xml</dc:format>
        <dc:type
           rdf:resource="http://purl.org/dc/dcmitype/StillImage" />
        <dc:title></dc:title>
      </cc:Work>
    </rdf:RDF>
  </metadata>
  <g
     inkscape:label="Layer 1"
     inkscape:groupmode="layer"
     id="layer1"
     transform="translate(-24.415946,-26.755373)">
    <path
       inkscape:connector-curvature="0"
       d="m 28.521049,189.56255 0.32422,-0.0844 0.32418,0.0985 0.32423,-0.0703 0.32423,0.0422 0.32423,0.14064 0.32418,0 0.32423,0.0984 0.32423,0.0422 0.32423,0.0422 0.32418,-0.0844 0.32423,0.0704 0.32422,-0.0141 0.32423,0.0141 0.32418,-0.0704 0.32423,-0.0562 0.32423,0 0.32418,-0.0141 0.32423,-0.0703 0.32423,-0.0141 0.32423,-0.0141 0.32418,0.0281 0.32423,-0.0563 0.32422,0.11254 0.32424,-0.14063 0.32417,0.0562 0.32423,0.0563 0.32423,-0.0563 0.32423,-0.0141 0.32418,0.0703 0.32423,0.0984 0.32423,-0.0984 0.32423,-0.0984 0.32418,0.0703 0.32423,0.0844 0.32423,0.0421 0.32418,-0.0141 0.32422,0.0844 0.32423,0 0.32423,-0.0844 0.32418,-0.0281 0.32423,-0.0141 0.32423,0.0141 0.32423,-0.0422 0.32418,-0.0281 0.32423,0.0281 0.32423,-0.0422 0.32423,0.12656 0.32417,-0.0562 0.32424,0 0.32422,0.0281 0.32423,0.0141 0.32418,0.0703 0.32423,-0.0141 0.32423,-0.0844 0.32418,0.014 0.32423,-0.0703 0.32423,0 0.32423,0.0984 0.32418,0.0281 0.32423,0 0.32422,0.0984 0.32423,-0.0703 0.32418,0.0141 0.32423,0.0141 0.32423,-0.12657 0.32423,0 0.32443,0.0703 0.32408,-0.0563 0.32408,-0.0562 0.32408,-0.0281 0.32458,0.0141 0.32408,0.0281 0.32408,-0.0141 0.32407,-0.0844 0.32458,0.0985 0.32408,0.0562 0.32408,-0.0281 0.32458,0.014 0.32408,0.0281 0.32408,0.0985 0.32408,-0.0563 0.32458,-0.0703 0.32408,0.0563 0.32408,-0.0281 0.32407,0.0141 0.32459,0.0563 0.32407,-0.12657 0.32408,0.0562 0.32458,0.0703 0.32408,-0.0563 0.32408,-0.0141 0.32408,-0.0422 0.32458,0.014 0.32408,-0.014 0.32408,0.014 0.32408,0.0844 0.32458,-0.0984 0.32408,-0.0281 0.32407,-0.0281 0.32458,-0.0703 0.32408,-0.0141 0.32408,0.0563 0.32408,0.0563 0.32458,-0.0563 0.32408,0.0141 0.32408,-0.0984 0.32408,-0.0703 0.32458,-0.0141 0.32408,0.0985 0.32407,-0.0281 0.32459,-0.0422 0.32407,0.0141 0.32408,-0.0563 0.32408,-0.0562 0.32458,-0.0422 0.32408,0.0422 0.32408,-0.0563 0.32408,0 0.32458,0.0281 0.32408,-0.0141 0.32408,0.0281 0.32458,-0.0141 0.32408,0.0281 0.32407,0.0421 0.32408,0 0.32458,-0.0984 0.32408,-0.0703 0.32408,-0.0844 0.32458,-0.0563 0.32408,-0.1125 0.32408,-0.0703 0.32408,-0.0844 0.32458,-0.0422 0.32408,0 0.324068,-0.0421 0.32408,0.0421 0.32458,-0.0562 0.32408,0.0141 0.32408,0 0.32458,-0.0703 0.32408,-0.0281 0.32408,0.0422 0.32408,-0.1125 0.32458,-0.0422 0.32408,0 0.32408,-0.0422 0.32407,-0.12656 0.32459,0.0422 0.32407,-0.0141 0.32408,-0.0281 0.32458,-0.0281 0.32408,-0.0844 0.32408,-0.1125 0.32408,0 0.32458,-0.0422 0.32408,0 0.32408,-0.0984 0.32408,-0.0703 0.32458,0.0422 0.32407,0.0281 0.32408,-0.0422 0.32458,0.18284 0.32408,0.1125 0.32408,-0.0141 0.32408,-0.0281 0.32458,0.0141 0.32408,-0.0141 0.32408,-0.0562 0.32408,-0.0281 0.32458,0.0281 0.32408,-0.0422 0.32407,-0.0141 0.32459,-0.0563 0.32407,0 0.32408,-0.0562 0.32408,-0.0281 0.32458,-0.0844 0.32408,-0.0281 0.32408,-0.16878 0.32408,-0.11254 0.32458,-0.16877 0.32408,-0.0844 0.32408,-0.12656 0.32458,-0.18284 0.32407,-0.1125 0.32408,-0.16877 0.32408,-0.1547 0.32458,-0.19692 0.32408,-0.19685 0.32408,-0.16877 0.32408,-0.39382 0.32458,-0.25314 0.32408,-0.32347 0.32408,-0.46411 0.32458,-0.32348 0.32408,-0.47818 0.32407,-0.46411 0.32408,-0.46411 0.32458,-0.49225 0.32408,-0.5344 0.32408,-0.66102 0.32458,-0.47818 0.32408,-0.75945 0.32408,-0.73136 0.32408,-0.81547 0.32458,-0.78784 0.32408,-0.88581 0.32407,-0.99887 0.32408,-1.05464 0.32458,-0.94209 0.32408,-1.20989 0.32408,-1.26566 0.32458,-1.16719 0.32408,-1.42042 0.32408,-1.44855 0.32408,-1.43449 0.32458,-1.54703 0.32408,-1.67366 0.32408,-1.68772 0.32407,-1.75806 0.324593,-1.84247 0.32407,-1.82791 0.32408,-1.95502 0.32458,-1.82841 0.32408,-1.72992 0.32408,-1.88468 0.32408,-1.7857 0.32458,-1.81434 0.32408,-1.68772 0.32408,-1.75806 0.32408,-1.5611 0.32458,-1.4767 0.32407,-1.46262 0.32408,-1.32194 0.32458,-1.22346 0.32408,-1.19582 0.32408,-1.04057 0.32408,-0.97023 0.32458,-0.91445 0.32408,-0.67479 0.32408,-0.66122 0.32408,-0.47833 0.32458,-0.309 0.32408,-0.26731 0.32407,-0.12661 0.32459,-0.15476 0.32407,0.0844 0.32408,0.0141 0.32408,0.0141 0.32458,0.14069 0.32408,0.15475 0.32408,0.25323 0.32408,0.4919 0.32458,0.33764 0.18892,-0.0593 0.16731,-0.0663 0.0116,0.14471 -0.0437,0.52958 -0.0739,0.32408 -0.16581,-0.094 -0.12059,0.30448 0.64163,0.21254 0.36729,0.30749 0.32407,0.57681 0.32408,0.4919 0.32408,0.61901 0.32458,0.66072 0.32408,0.4924 0.32408,0.52054 0.32408,0.56223 0.32458,0.47833 0.32408,0.4502 0.32408,0.40798 0.32458,0.39342 0.32408,0.40799 0.32407,0.30951 0.32408,0.40798 0.32458,0.28087 0.32408,0.19696 0.32408,0.0703 0.32408,0.0844 0.32458,0.0422 0.32408,-0.0703 0.32408,-0.0985 0.32458,-0.23917 0.32408,-0.49189 0.32408,-0.42206 0.32407,-0.5346 0.32458,-0.7592 0.32408,-0.68936 0.32408,-0.85768 0.32408,-0.95666 0.32458,-1.05463 0.32408,-1.19533 0.32408,-1.23752 0.32458,-1.30787 0.32408,-1.56111 0.32408,-1.64551 0.32407,-1.75807 0.32459,-1.77213 0.32407,-1.92688 0.32408,-2.09521 0.32458,-2.2786 0.32408,-2.16605 0.32408,-2.37657 0.32408,-2.48913 0.32458,-2.47555 0.32408,-2.62981 0.32408,-2.643882 0.32408,-2.78507 0.32458,-2.74235 0.32407,-2.96746 0.32408,-3.05186 0.32458,-2.98152 0.32408,-3.0378 0.32408,-3.15035 0.32408,-3.27696 0.32458,-3.10814 0.32408,-3.1222 0.32408,-3.20662 0.32408,-3.26239 0.32458,-3.16442 0.32408,-3.05186 0.32407,-2.99559 0.32459,-2.86948 0.32407,-2.84084 0.32408,-2.61574 0.32408,-2.53133 0.32458,-2.34894 0.32408,-2.02536 0.32408,-2.0108 0.32408,-1.64551 0.32458,-1.43449 0.32408,-1.20939 0.32408,-1.06921 0.32458,-0.64665 0.32408,-0.60494 0.32407,-0.35172 0.32408,-0.0563 0.32458,0.23916 0.32408,0.42206 0.32408,0.70292 0.32408,0.85818 0.32458,1.2516 0.32408,1.32194 0.32408,1.67365 0.32458,1.81434 0.32408,2.13791 0.32407,2.19369 0.32408,2.46149 0.32458,2.60167 0.32408,2.78456 0.32408,2.91118 0.32408,3.05187 0.32458,3.13627 0.32408,3.26289 0.32408,3.29103 0.32458,3.40358 0.32408,3.51563 0.32408,3.38951 0.32407,3.48799 0.32459,3.51612 0.32407,3.33273 0.32408,3.33324 0.32408,3.3473 0.32458,3.36138 0.32408,3.19255 0.32408,3.164412 0.32458,2.99559 0.32408,3.08 0.32408,2.95339 0.32408,2.88304 0.32458,2.72829 0.32407,2.51776 0.32408,2.53133 0.32458,2.57354 0.32408,2.30673 0.32408,2.22183 0.32408,2.23639 0.32458,2.0952 0.32408,1.84248 0.32408,1.89875 0.32408,1.67365 0.32458,1.58924 0.32408,1.33601 0.32407,1.42041 0.32458,1.22346 0.32408,1.15362 0.32408,1.04057 0.32408,0.87175 0.32458,0.84411 0.32408,0.77327 0.32408,0.67528 0.32408,0.73107 0.32458,0.5346 0.32408,0.59088 0.32407,0.37934 0.32408,0.53461 0.32458,0.30951 0.32408,0.25323 0.32408,0.37935 0.32458,0.30951 0.32408,0.36578 0.32408,0.16882 0.32408,0.15475 0.32458,0.25324 0.32408,0.0141 0.32408,0.0281 0.32458,-0.0141 0.32408,-0.0422 0.32407,-0.0141 0.32408,-0.0703 0.32458,-0.0422 0.32408,-0.11255 0.32408,-0.0141 0.32408,0.0281 0.32458,-0.0844 0.32408,0.14069 0.32408,-0.0563 0.32458,0.0703 0.32408,-0.0703 0.32407,-0.0985 0.32408,0.0141 0.32458,0.0281 0.32408,0.0141 0.32408,0.18289 0.32408,0.0563 0.32458,0.11255 0.32408,0.23866 0.32408,0.21103 0.32458,0.2673 0.32408,0.30951 0.32408,0.42205 0.32407,0.47783 0.32459,0.46426 0.32407,0.40799 0.32408,0.70292 0.32408,0.64716 0.32458,0.59037 0.32408,0.67529 0.32408,0.78784 0.32458,0.70292 0.32408,0.81598 0.32408,0.71699 0.32408,0.81597 0.32458,0.80141 0.32408,0.8014 0.32407,0.91445 0.32408,0.84361 0.32458,0.92853 0.32408,0.78733 0.32408,0.91446 0.32458,0.82954 0.32408,0.7597 0.32408,0.77326 0.32408,0.7175 0.32458,0.66072 0.32408,0.60494 0.32407,0.78734 0.32408,0.46426 0.32458,0.68936 0.32408,0.52003 0.32408,0.60495 0.32458,0.5341 0.32408,0.45019 0.32408,0.43612 0.32408,0.52029 0.32458,0.33754 0.32408,0.39382 0.32408,0.36563 0.32458,0.35161 0.32408,0.39377 0.32407,0.23912 0.32408,0.23906 0.32458,0.28127 0.32408,0.28132 0.32408,0.28127 0.32408,0.19686 0.32458,0.26725 0.32408,0.21093 0.32408,0.12662 0.32408,0.23906 0.32458,0.22504 0.32407,0.21093 0.32408,0.0985 0.32459,0.23907 0.32407,0.0422 0.32408,0.0984 0.32408,0.12657 0.32458,0.0422 0.32408,0.12657 0.32408,0.0422 0.32458,0.18284 0.32408,0.1125 0.32408,0.0843 0.32408,0.15471 0.32458,0.0844 0.32408,0.0984 0.32407,0.0563 0.32408,0.0141 0.32458,0.0844 0.32408,0.12657 0.32408,-0.0421 0.32458,0.0281 0.32408,-0.0563 0.32408,-0.0563 0.32408,0.0985 0.32458,0 0.32408,0.1125 0.32407,0.0422 0.32408,0.0141 0.32458,0.15471 0.32408,-0.0422 0.32408,0.14064 0.32458,-0.0281 0.32408,-0.0422 0.32408,0 0.32408,0.0141 0.32458,0.0281 0.32408,-0.0281 0.32408,0.0563 0.32407,-0.0281 0.32459,0.0844 0.32407,0.0844 0.32408,0.1125 0.32458,0.0703 0.32408,0.0844 0.32408,-0.0703 0.32408,0.0703 0.32458,-0.0281 0.32408,-0.0281 0.32408,-5e-5 0.32408,5e-5 0.32458,0.0422 0.32407,0.0422 0.32408,0.0563 0.32458,0 0.32408,0.0281 0.32408,0.1547 0.32408,-0.0422 0.32458,0 0.32408,0.0422 0.32408,0.0844 0.32408,-0.0281 0.32458,-0.0844 0.32408,0 0.32407,0.014 0.32459,0.0281 0.32407,0.0844 0.32408,0.14063 0.32408,0.0422 0.32458,0.0562 0.32408,0.1125 0.32408,0.0281 0.32408,0.0422 0.32458,0.0844 0.32408,0.0141 0.32408,0.0563 0.32458,-0.0281 0.32407,0.0563 0.32408,-0.0281 0.32408,-0.0281 0.32458,0.0563 0.32408,0.0422 0.32408,0.0844 0.32408,-0.0141 0.32458,0.0984 0.32408,-0.0422 0.32408,0.0281 0.32458,0.0984 0.32408,0.0703 0.32407,-0.014 0.32408,0.014 0.32458,0.0422 0.32408,-0.0281 0.32408,0 0.32458,-0.0703 0.32408,0.0562 0.32408,0 0.32408,-0.0984 0.32458,0.11249 0.32408,-0.0141 0.32408,-0.0844 0.32407,-0.0141 0.32458,0.0422 0.32408,0.0422 0.32408,0.014 0.32458,0.0422 0.32408,-0.0141 0.32408,0.0985 0.32408,-0.0141 0.32458,-0.0422 0.32408,-0.0141 0.32408,0.12657 0.32407,0 0.32459,-0.0703 0.32407,-0.12656 0.32408,0.0562 0.32458,-0.0422 0.32408,-0.0421 0.32408,-0.0563 0.32408,0.0703 0.32458,0 0.32408,0.0141 0.32408,0.0844 0.32408,-0.0563 0.32458,0.0985 0.32408,-0.0563 0.32407,-0.0281 0.32458,0.0422 0.32408,-0.0281 0.32408,0 0.32408,0 0.32458,-0.0141 0.32408,-0.0141 0.32408,0 0.32408,-0.0703 0.32458,-0.0703 0.32408,0.0563 0.32407,0.0422 0.32459,0.0421 0.32407,-0.11249 0.32408,0.0844 0.32408,0.0844 0.32458,-0.0141 0.32408,-0.0141 0.32408,-0.0281 0.32408,0.0844 0.32458,0.0281 0.32408,-0.0703 0.32408,-0.0141 0.32458,0.0985 0.32407,0.1125 0.32408,-0.0141 0.32408,0.0563 0.32458,0.0984 0.32408,0.0422 0.32408,0.0422 0.32408,0.0563 0.32458,-0.0844 0.32408,0.0562 0.32408,-0.0844 0.32458,0.0562 0.32408,0.0563 0.32407,0.0141 0.32408,-0.0141 0.32458,-0.0422 0.32408,-0.0562 0.32408,0.0422 0.32458,0 0.32408,0.0281 0.32408,0 0.32408,-0.0844 0.32458,0.0844 0.32408,0.0703 0.32408,0.18279 0.32407,0.0141 0.32458,-0.0562 0.32408,0.0562 0.32408,0.0141 0.32458,0.0141 0.32408,-0.0141 0.32408,0.0704 0.32408,-0.1125 0.32458,-0.0141 0.32408,0.0141 0.32408,0.0281 0.32407,-0.0141 0.32459,-0.0421 0.32407,0.0141 0.32408,0 0.32458,0.0141 0.32408,-0.0703 0.32408,-0.0141 0.32408,-0.0281 0.32458,0.0281 0.32408,-0.12656 0.32408,0.0703 0.32408,0.0141 0.32458,-0.0141 0.32408,0 0.32407,0.0281 0.32458,0.0563 0.32408,-0.0984 0.32408,0.1125 0.32408,0 0.32458,0.0141 0.32408,-0.0141 0.32408,0 0.32408,-0.0141 0.32458,-0.0563 0.32408,-0.0562 0.32407,-0.0563 0.32459,-0.0422 0.32407,0.0141 0.32408,-0.0281 0.32408,0.0281 0.32458,0.0141 0.32408,0.0844 0.32408,0.0422 0.32408,0.0281 0.32458,0.0141 0.32408,-0.0703 0.32408,0.0563 0.32458,-0.0563 0.32408,-0.0281 0.32407,0 0.28188,0"
       style="fill:none;stroke:#0000ff;stroke-width:0.75367093;stroke-linecap:butt;stroke-linejoin:miter;stroke-miterlimit:10;stroke-opacity:1;stroke-dasharray:none"
       id="path3420" />
    <path
       inkscape:connector-curvature="0"
       d="m 328.72186,187.23036 0.33146,0.0359 0.33145,0.0718 0.33145,0 0.33145,0.0359 0.3314,0.0359 0.33146,-0.0478 0.33145,0.0239 0.33145,0.0119 0.33145,0.0239 0.3314,-0.0478 0.33146,-0.0956 0.33145,0 0.33145,-0.0478 0.3314,-0.0119 0.33146,-0.0598 0.33145,0.13158 0.33145,0.0119 0.33145,-0.0119 0.3314,-0.012 0.33146,0 0.33145,-0.012 0.33145,0 0.33145,0.012 0.3314,0.012 0.33146,0 0.33145,0.0957 0.33145,-0.0359 0.33145,0.0957 0.33141,-0.0598 0.33145,-0.0359 0.33145,0.012 0.33145,0.012 0.33145,-0.012 0.33141,0.0239 0.33145,0 0.33145,-0.012 0.33145,-0.012 0.3314,0.0478 0.33146,-0.0239 0.33145,-0.0478 0.33145,0.0239 0.33145,0.0359 0.33141,-0.0239 0.33145,-0.0478 0.33145,0.012 0.33145,0 0.3314,-0.0478 0.33146,-0.0359 0.33145,0 0.33145,0.0239 0.33145,0.0956 0.3314,-0.012 0.33146,0.012 0.33145,0 0.33145,-0.012 0.33145,0 0.33141,0.0359 0.33145,-0.0718 0.33145,-0.0239 0.33145,0.012 0.33145,-0.13153 0.33141,-0.012 0.33145,0.0717 0.33145,-0.012 0.33145,0.012 0.3314,0.0957 0.33161,0.0359 0.3311,-0.0717 0.3316,-0.0359 0.33161,0.0598 0.33109,0.11964 0.33161,-0.10764 0.3316,-0.0359 0.3311,0.012 0.3316,0.0359 0.33161,0 0.3316,0 0.3311,-0.0717 0.3316,0 0.33161,-0.0239 0.3311,-0.0598 0.3316,-0.0359 0.33161,-0.0478 0.33109,-0.0359 0.33161,-0.0478 0.3316,-0.0239 0.3311,0.0119 0.3316,-0.0359 0.33161,-0.0359 0.3311,0.012 0.3316,0.0359 0.3316,0 0.3311,-0.0598 0.33161,-0.012 0.3316,-0.0717 0.3311,0.0239 0.3316,0 0.33161,-0.0598 0.33109,-0.0838 0.33161,-0.0359 0.3316,-0.0957 0.3311,-0.0598 0.33161,0 0.3316,-0.10764 0.3316,0.0359 0.3311,0 0.33161,0.0119 0.3316,-0.14352 0.3311,0.0239 0.3316,0 0.33161,-0.0239 0.33109,-0.0717 0.33161,-0.0359 0.3316,-0.0717 0.3311,-0.0478 0.3316,-0.0838 0.33161,-0.0239 0.3311,-0.0838 0.3316,-0.0598 0.3316,0.0598 0.3311,-0.0359 0.33161,-0.0478 0.3316,0.0239 0.3311,0.0359 0.3316,-0.0478 0.33161,-0.0359 0.33109,0.0359 0.33161,-0.0239 0.3316,-0.0239 0.3311,-0.0359 0.33161,-0.0838 0.3316,-0.0957 0.3316,-0.0598 0.3311,0.0478 0.33161,0 0.3316,0.012 0.3311,-0.0598 0.3316,-0.0359 0.33161,-0.0478 0.33109,-0.0957 0.33161,0.0598 0.3316,0.012 0.3311,-0.0239 0.3316,-0.012 0.33161,-0.0359 0.3311,-0.0478 0.3316,-0.10763 0.3316,-0.0838 0.3311,-0.0956 0.33161,-0.0359 0.3316,-0.17937 0.3311,-0.13158 0.3316,-0.0717 0.33161,-0.0838 0.3311,-0.14347 0.3316,-0.16742 0.3316,-0.0598 0.3311,-0.10764 0.3316,-0.27505 0.33161,-0.22726 0.3316,-0.16742 0.3311,-0.21527 0.33161,-0.27506 0.3316,-0.32289 0.3311,-0.39463 0.3316,-0.31095 0.33161,-0.39464 0.33109,-0.44248 0.33161,-0.40658 0.3316,-0.50231 0.3311,-0.49032 0.3316,-0.52616 0.33161,-0.6459 0.3311,-0.61005 0.3316,-0.65763 0.3316,-0.71739 0.3311,-0.80142 0.33161,-0.81306 0.3316,-0.81306 0.3311,-0.93305 0.3316,-1.01658 0.33161,-0.95684 0.33109,-0.9447 0.33161,-1.08796 0.3316,-1.13606 0.33111,-1.19631 0.33159,-1.23174 0.33161,-1.24339 0.33161,-1.27984 0.33109,-1.26769 0.33161,-1.30364 0.33161,-1.36337 0.33109,-1.43476 0.33161,-1.495 0.3316,-1.4469 0.3311,-1.39933 0.3316,-1.53094 0.33161,-1.54259 0.33109,-1.49501 0.33161,-1.44691 0.3316,-1.44691 0.3311,-1.37552 0.33161,-1.41097 0.33159,-1.33957 0.3311,-1.31528 0.33161,-1.23174 0.3316,-1.18416 0.3311,-1.20796 0.33161,-1.14769 0.3316,-1.08848 0.3311,-1.02822 0.3316,-0.969 0.3316,-0.9209 0.33161,-0.94469 0.3311,-0.88495 0.3316,-0.71738 0.33161,-0.83736 0.3311,-0.69359 0.33159,-0.52601 0.33161,-0.57411 0.3311,-0.40653 0.3316,-0.49057 0.33161,-0.38273 0.3311,-0.28655 0.3316,-0.10784 0.3316,-0.0121 0.33111,-0.0238 0.33159,0.0719 0.33161,0.0957 0.3311,0.22732 0.3316,0.23895 0.33161,0.34679 0.3311,0.39489 0.3316,0.2749 0.3316,0.43033 0.3311,0.45463 0.3316,0.56195 0.33161,0.47842 0.3311,0.61006 0.3316,0.64548 0.33161,0.56246 0.3316,0.66928 0.33109,0.58626 0.33161,0.61005 0.33161,0.60955 0.33109,0.6222 0.33161,0.49006 0.33161,0.53817 0.33109,0.45462 0.3316,0.43033 0.33161,0.32299 0.33109,0.15543 0.33161,0.17922 0.33161,0.20352 0.33109,0.0238 0.33161,-0.15542 0.3316,-0.14328 0.3311,-0.33515 0.3316,-0.41817 0.33161,-0.50273 0.33109,-0.71737 0.33161,-0.63385 0.33161,-1.05252 0.33109,-1.06418 0.33161,-1.24389 0.3316,-1.33907 0.33109,-1.5188 0.33161,-1.80585 0.33161,-1.72232 0.3316,-2.05696 0.3311,-2.12885 0.33161,-2.27211 0.33159,-2.33187 0.3311,-2.46349 0.33161,-2.57133 0.3316,-2.6427 0.3311,-2.75054 0.33161,-2.77485 0.3316,-2.918121 0.3311,-2.96571 0.0506,-0.62068 0.61259,-5.514256 0.33109,-3.205174 0.33161,-3.085184 0.33161,-3.420329 0.33109,-3.193017 0.33161,-3.360598 0.3316,-3.396024 0.3311,-3.253267 0.3316,-3.28871 0.33161,-3.133276 0.33109,-3.061387 0.33161,-3.025443 0.33161,-2.846232 0.33109,-2.762695 0.33161,-2.750538 0.3316,-2.535382 0.3316,-2.35566 0.3311,-2.284272 0.33161,-1.997219 0.3316,-1.925321 0.3311,-1.578545 0.33161,-1.518796 0.33159,-1.24389 0.3311,-0.99279 0.33161,-0.860652 0.3316,-0.478423 0.3311,-0.418682 0.33161,-0.215165 0.3316,-0.01214 0.3311,0.131629 0.3316,0.394386 0.3316,0.658144 0.3311,0.813059 0.33161,1.040382 0.3316,1.303631 0.3311,1.387167 0.33161,1.901534 0.33159,1.86559 0.33111,2.236179 0.3316,2.511586 0.3316,2.642705 0.33161,2.834584 0.3311,3.013805 0.3316,3.097331 0.3316,3.408182 0.33111,3.467922 0.33159,3.528171 0.33161,3.73118 0.3311,3.754975 0.3316,3.910901 0.33161,3.946345 0.3311,3.958493 0.3316,4.065816 0.3316,4.006595 0.3311,3.957985 0.3316,3.93471 0.33161,3.910401 0.3311,3.9109 0.3316,3.79092 0.33161,3.80307 0.3311,3.73118 0.33159,3.62335 0.33161,3.57575 0.3311,3.58792 0.3316,3.32464 0.33161,3.34844 0.3311,3.20518 0.3316,3.07353 0.3316,2.77434 0.33161,2.72675 0.33109,2.54703 0.33161,2.24831 0.33161,2.06912 0.33109,1.88938 0.33161,1.78206 0.3316,1.45906 0.3311,1.30313 0.3316,1.1482 0.33161,0.93305 0.33109,0.78927 0.33161,0.51386 0.33161,0.41868 0.33109,0.19137 0.33161,0.13163 0.3316,-0.11948 0.33109,-0.2749 0.33161,-0.27541 0.33161,-0.41868 0.33109,-0.63384 0.33161,-0.57361 0.3316,-0.78926 0.3311,-0.9209 0.3316,-0.95684 0.33161,-1.01659 0.33109,-1.18416 0.33161,-1.18364 0.33161,-1.23175 0.3316,-1.24389 0.3311,-1.32743 0.3316,-1.30363 0.3316,-1.41097 0.3311,-1.36338 0.33161,-1.39931 0.3316,-1.33908 0.3311,-1.33957 0.3316,-1.18416 0.3316,-1.1477 0.33111,-1.10063 0.3316,-0.94469 0.3316,-0.90875 0.3311,-0.76547 0.3316,-0.58575 0.33161,-0.646 0.3311,-0.39488 0.3316,-0.32249 0.3316,-0.22732 0.3311,-0.10783 0.33161,-0.0117 0.3316,0.13111 0.3311,0.25162 0.3316,0.39438 0.33161,0.50222 0.3311,0.68194 0.3316,0.74117 0.3316,0.95685 0.3311,1.04037 0.3316,1.2201 0.33161,1.1958 0.33161,1.32743 0.33109,1.36338 0.3316,1.57853 0.33161,1.48285 0.3311,1.60234 0.3316,1.56688 0.33161,1.5907 0.33109,1.61448 0.33161,1.63828 0.3316,1.67422 0.3311,1.55474 0.3316,1.61449 0.33161,1.71016 0.33109,1.53044 0.33161,1.59069 0.33161,1.67422 0.33109,1.57853 0.33161,1.50665 0.3316,1.48336 0.3311,1.41097 0.3316,1.38716 0.33161,1.2439 0.3316,1.2196 0.3311,1.13626 0.33161,1.1361 0.33159,0.9687 0.3311,0.93279 0.33161,0.95669 0.3316,0.81321 0.3311,0.88501 0.33161,0.65774 0.3316,0.72948 0.3311,0.62189 0.3316,0.56207 0.3316,0.44246 0.3311,0.40664 0.33161,0.287 0.3316,0.17938 0.3311,0 0.33161,0.20331 0.33159,0 0.33111,-0.0717 0.3316,0 0.3316,-0.13157 0.3311,-0.16743 0.33161,-0.15547 0.3316,-0.29895 0.3311,-0.22722 0.33161,-0.299 0.33159,-0.38268 0.3311,-0.28701 0.33161,-0.38268 0.3316,-0.43053 0.33161,-0.38269 0.3311,-0.38268 0.3316,-0.44248 0.3316,-0.43053 0.3311,-0.45448 0.3316,-0.39462 0.33161,-0.40659 0.3311,-0.31095 0.3316,-0.52621 0.33161,-0.27506 0.3311,-0.287 0.33159,-0.35879 0.33161,-0.25111 0.3311,-0.23921 0.3316,-0.20326 0.33161,-0.0838 0.3311,-0.21526 0.3316,-0.0838 0.3316,-0.0717 0.33111,-0.0239 0.33159,0 0.33161,-0.0359 0.3311,0.13153 0.3316,0.0718 0.33161,0.15547 0.3311,0.14347 0.3316,0.25117 0.3316,0.19131 0.33161,0.28706 0.33109,0.20326 0.33161,0.299 0.33161,0.27505 0.33109,0.27507 0.33161,0.35878 0.3316,0.25111 0.33109,0.27506 0.33161,0.27505 0.33161,0.27505 0.33109,0.299 0.33161,0.26311 0.33161,0.28701 0.33109,0.299 0.3316,0.25111 0.33161,0.33484 0.33109,0.20331 0.33161,0.27505 0.33161,0.17938 0.33109,0.25116 0.33161,0.19137 0.3316,0.21525 0.3311,0.22722 0.3316,0.11958 0.33161,0.23915 0.33109,0.10764 0.33161,0.10763 0.33161,0.10764 0.33159,0.0359 0.33111,0.0478 0.3316,0.0239 0.3316,0 0.3311,0.0359 0.33161,-0.0598 0.3316,-0.0478 0.3311,-0.0478 0.33161,-0.0837 0.33159,-0.0957 0.3311,-0.0598 0.33161,-0.10763 0.3316,-0.0478 0.3311,-0.0478 0.33161,-0.14353 0.3316,-0.0956 0.3311,-0.14351 0.3316,-0.14354 0.3316,-0.16741 0.3311,-0.13153 0.33161,-0.0598 0.3316,-0.14353 0.3311,-0.19136 0.33161,-0.14348 0.33159,-0.15547 0.33161,-0.11958 0.3311,-0.15547 0.3316,-0.11958 0.33161,-0.0239 0.3311,-0.23917 0.3316,-0.13152 0.3316,-0.012 0.33111,0.012 0.33159,-0.0838 0.33161,-0.0359 0.3311,0.0239 0.3316,0.0359 0.33161,0.0478 0.3311,-0.012 0.3316,-0.0239 0.3316,0.0598 0.3311,0.0478 0.3316,-0.012 0.33161,0.0359 0.3311,0.0717 0.3316,0.15548 0.33161,0.012 0.3311,0.0718 0.33159,0.0717 0.33161,0.10763 0.3311,0.11958 0.3316,0.15547 0.33161,0.11959 0.33161,0.0478 0.33109,0.0359 0.3316,0.13154 0.33161,0.0718 0.33109,0.14347 0.33161,0.012 0.33161,0.22725 0.33109,0.0598 0.33161,0.10763 0.3316,0.0239 0.3311,0.14352 0.3316,0.10763 0.33161,0.0598 0.33109,0.0837 0.33161,-0.0239 0.33161,0.0359 0.33109,0 0.33161,-0.0359 0.3316,0.0359 0.33109,0.0598 0.33161,0.0359 0.33161,0.012 0.33109,0.0359 0.33161,0.0239 0.33161,-0.012 0.33109,0.012 0.3316,0.012 0.33161,0.0598 0.3316,-0.0598 0.3311,0.0119 0.33161,-0.0598 0.3316,-0.0598 0.3311,-0.012 0.3316,-0.0718 0.3316,-0.0837 0.3311,-0.0478 0.33161,-0.0837 0.3316,-0.0478 0.3311,-0.0838 0.33161,0.10763 0.33159,-0.0359 0.33111,-0.0598 0.3316,0 0.3316,-0.0359 0.3311,-0.0838 0.33161,-0.0478 0.3316,-0.0359 0.3311,-0.0599 0.33161,-0.0359 0.33159,-0.0359 0.3311,-0.0119 0.33161,-0.0239 0.3316,-0.0239 0.3311,-0.0239 0.33161,0 0.3316,-0.012 0.3316,-0.0119 0.3311,0.0119 0.3316,0.0478 0.33161,0.012 0.3311,0.0599 0.3316,-0.0359 0.33161,0.0598 0.3311,0.14352 0.33159,0 0.33161,0.0598 0.3311,0.0239 0.3316,0 0.33161,0.0359 0.3311,-0.0478 0.3316,-0.0359 0.3316,0.0359 0.33111,0.0478 0.33159,-0.012 0.33161,0.0717 0.3311,0.0598 0.3316,-0.0239 0.33161,-0.0478 0.3311,0.0478 0.3316,0.0119 0.3316,-0.0359 0.33161,0.0598 0.33109,0.0359 0.33161,0.0957 0.33161,0.0598 0.33109,0 0.33161,0 0.3316,0.10762 0.33109,-0.0478 0.33161,0.0359 0.33161,0.0359 0.33109,-0.0239 0.33161,-0.0598 0.33161,0 0.33109,-0.012 0.3316,-0.0717 0.33161,-0.0478 0.33109,-0.0239 0.33161,0.0359 0.33161,0 0.33109,-0.0598 0.33161,0.0359 0.3316,0.0359 0.3311,-0.0239 0.3316,-0.0359 0.33161,-0.012 0.33109,0.0478 0.33161,-0.0598 0.33161,-0.0239 0.33159,0.0478 0.33111,-0.012 0.3316,-0.0598 0.3316,-0.0478 0.3311,-0.0837 0.33161,-0.0239 0.3316,-0.0478 0.3311,-0.11958 0.33161,0 0.33159,0.012 0.3311,-0.0239 0.33161,-0.0598 0.28806,-0.0104"
       style="fill:none;stroke:#ff6600;stroke-width:0.75939888;stroke-linecap:butt;stroke-linejoin:miter;stroke-miterlimit:10;stroke-opacity:1;stroke-dasharray:none"
       id="path3967" />
    <path
       inkscape:connector-curvature="0"
       d="m 24.792781,470.6343 0.32422,-0.0844 0.32418,0.0985 0.32423,-0.0703 0.32423,0.0422 0.32423,0.14064 0.32418,0 0.32423,0.0984 0.32423,0.0422 0.32423,0.0422 0.32418,-0.0844 0.32423,0.0704 0.32422,-0.0141 0.32423,0.0141 0.32418,-0.0704 0.32423,-0.0562 0.32423,0 0.32418,-0.0141 0.32423,-0.0703 0.32423,-0.0141 0.32423,-0.0141 0.32418,0.0281 0.32423,-0.0563 0.32422,0.11254 0.32424,-0.14063 0.32417,0.0562 0.32423,0.0563 0.32423,-0.0563 0.32423,-0.0141 0.32418,0.0703 0.32423,0.0984 0.32423,-0.0984 0.32423,-0.0984 0.32418,0.0703 0.32423,0.0844 0.32423,0.0421 0.32418,-0.0141 0.32422,0.0844 0.32423,0 0.32423,-0.0844 0.32418,-0.0281 0.32423,-0.0141 0.32423,0.0141 0.32423,-0.0422 0.32418,-0.0281 0.32423,0.0281 0.32423,-0.0422 0.32423,0.12656 0.32417,-0.0562 0.32424,0 0.32422,0.0281 0.32423,0.0141 0.32418,0.0703 0.32423,-0.0141 0.32423,-0.0844 0.32418,0.014 0.32423,-0.0703 0.32423,0 0.32423,0.0984 0.32418,0.0281 0.32423,0 0.32422,0.0984 0.32423,-0.0703 0.32418,0.0141 0.32423,0.0141 0.32423,-0.12657 0.32423,0 0.32443,0.0703 0.32408,-0.0563 0.32408,-0.0562 0.32408,-0.0281 0.32458,0.0141 0.32408,0.0281 0.32408,-0.0141 0.32407,-0.0844 0.32458,0.0985 0.32408,0.0562 0.32408,-0.0281 0.32458,0.014 0.32408,0.0281 0.32408,0.0985 0.32408,-0.0563 0.32458,-0.0703 0.32408,0.0563 0.32408,-0.0281 0.32407,0.0141 0.32459,0.0563 0.32407,-0.12657 0.32408,0.0562 0.32458,0.0703 0.32408,-0.0563 0.32408,-0.0141 0.32408,-0.0422 0.32458,0.014 0.32408,-0.014 0.32408,0.014 0.32408,0.0844 0.32458,-0.0984 0.32408,-0.0281 0.32407,-0.0281 0.32458,-0.0703 0.32408,-0.0141 0.32408,0.0563 0.32408,0.0563 0.32458,-0.0563 0.32408,0.0141 0.32408,-0.0984 0.32408,-0.0703 0.32458,-0.0141 0.32408,0.0985 0.32407,-0.0281 0.32459,-0.0422 0.32407,0.0141 0.32408,-0.0563 0.32408,-0.0562 0.32458,-0.0422 0.32408,0.0422 0.32408,-0.0563 0.32408,0 0.32458,0.0281 0.32408,-0.0141 0.32408,0.0281 0.32458,-0.0141 0.32408,0.0281 0.32407,0.0421 0.32408,0 0.32458,-0.0984 0.32408,-0.0703 0.32408,-0.0844 0.32458,-0.0563 0.32408,-0.1125 0.32408,-0.0703 0.32408,-0.0844 0.32458,-0.0422 0.32408,0 0.32407,-0.0421 0.32408,0.0421 0.32458,-0.0562 0.32408,0.0141 0.32408,0 0.32458,-0.0703 0.32408,-0.0281 0.32408,0.0422 0.32408,-0.1125 0.32458,-0.0422 0.32408,0 0.32408,-0.0422 0.32407,-0.12656 0.32459,0.0422 0.32407,-0.0141 0.32408,-0.0281 0.32458,-0.0281 0.32408,-0.0844 0.32408,-0.1125 0.32408,0 0.32458,-0.0422 0.32408,0 0.32408,-0.0984 0.32408,-0.0703 0.32458,0.0422 0.32407,0.0281 0.32408,-0.0422 0.32458,0.18284 0.32408,0.1125 0.32408,-0.0141 0.32408,-0.0281 0.32458,0.0141 0.32408,-0.0141 0.32408,-0.0562 0.32408,-0.0281 0.32458,0.0281 0.32408,-0.0422 0.32407,-0.0141 0.32459,-0.0563 0.32407,0 0.32408,-0.0562 0.32408,-0.0281 0.32458,-0.0844 0.32408,-0.0281 0.32408,-0.16878 0.32408,-0.11254 0.32458,-0.16877 0.32408,-0.0844 0.32408,-0.12656 0.32458,-0.18284 0.32407,-0.1125 0.32408,-0.16877 0.32408,-0.1547 0.32458,-0.19692 0.32408,-0.19685 0.32408,-0.16877 0.32408,-0.39382 0.32458,-0.25314 0.32408,-0.32347 0.32408,-0.46411 0.32458,-0.32348 0.32408,-0.47818 0.32407,-0.46411 0.32408,-0.46411 0.32458,-0.49225 0.32408,-0.5344 0.32408,-0.66102 0.32458,-0.47818 0.32408,-0.75945 0.32408,-0.73136 0.32408,-0.81547 0.32458,-0.78784 0.32408,-0.88581 0.32407,-0.99887 0.32408,-1.05464 0.32458,-0.94209 0.32408,-1.20989 0.32408,-1.26566 0.32458,-1.16719 0.32408,-1.42042 0.32408,-1.44855 0.32408,-1.43449 0.32458,-1.54703 0.32408,-1.67366 0.32408,-1.68772 0.32407,-1.75806 0.32459,-1.84247 0.32407,-1.82791 0.32408,-1.95502 0.32458,-1.82841 0.32408,-1.72992 0.32408,-1.88468 0.32408,-1.7857 0.32458,-1.81434 0.32408,-1.68772 0.32408,-1.75806 0.32408,-1.5611 0.324579,-1.4767 0.32407,-1.46262 0.32408,-1.32194 0.32458,-1.22346 0.32408,-1.19582 0.32408,-1.04057 0.32408,-0.97023 0.32458,-0.91445 0.32408,-0.6748 0.32408,-0.66122 0.32408,-0.47833 0.32458,-0.309 0.32408,-0.26731 0.32407,-0.12661 0.32459,-0.15476 0.32407,0.0844 0.32408,0.0141 0.32408,0.0141 0.32458,0.14069 0.32408,0.15475 0.32408,0.25323 0.32408,0.4919 0.32458,0.33764 0.18892,-0.0593 0.16731,-0.0663 0.0116,0.14471 -0.0437,0.52958 -0.0739,0.32409 -0.16581,-0.094 -0.12059,0.30448 0.64163,0.21254 0.36729,0.30749 0.32407,0.57681 0.32408,0.4919 0.32408,0.61901 0.32458,0.66072 0.32408,0.4924 0.32408,0.52054 0.32408,0.56223 0.32458,0.47833 0.32408,0.4502 0.32408,0.40798 0.32458,0.39342 0.32408,0.40799 0.32407,0.30951 0.32408,0.40798 0.32458,0.28087 0.32408,0.19696 0.32408,0.0703 0.32408,0.0844 0.32458,0.0422 0.32408,-0.0703 0.32408,-0.0985 0.32458,-0.23917 0.32408,-0.49189 0.32408,-0.42206 0.32407,-0.5346 0.32458,-0.7592 0.32408,-0.68936 0.32408,-0.85768 0.32408,-0.95666 0.32458,-1.05463 0.32408,-1.19533 0.32408,-1.23752 0.32458,-1.30787 0.32408,-1.56111 0.32408,-1.64551 0.32407,-1.75807 0.32459,-1.77213 0.32407,-1.92688 0.32408,-2.09521 0.32458,-2.2786 0.32408,-2.16605 0.32408,-2.37657 0.32408,-2.48913 0.32458,-2.47555 0.32408,-2.62981 0.32408,-2.64389 0.32408,-2.78507 0.32458,-2.74235 0.32407,-2.96746 0.32408,-3.05186 0.32458,-2.98152 0.32408,-3.0378 0.32408,-3.15035 0.32408,-3.27696 0.32458,-3.10814 0.32408,-3.1222 0.32408,-3.20662 0.32408,-3.26239 0.32458,-3.16442 0.32408,-3.05186 0.32407,-2.99559 0.32459,-2.86948 0.32407,-2.84084 0.32408,-2.61574 0.32408,-2.53133 0.32458,-2.34894 0.32408,-2.02535 0.32408,-2.0108 0.32408,-1.64551 0.32458,-1.43449 0.32408,-1.20939 0.32408,-1.06921 0.32458,-0.64665 0.32408,-0.60494 0.32407,-0.35172 0.32408,-0.0563 0.32458,0.23916 0.32408,0.42206 0.32408,0.70292 0.32408,0.85818 0.32458,1.2516 0.32408,1.32194 0.32408,1.67365 0.32458,1.81434 0.32408,2.1379 0.32407,2.19369 0.32408,2.46149 0.32458,2.60167 0.32408,2.78456 0.32408,2.91118 0.32408,3.05187 0.32458,3.13627 0.32408,3.26289 0.32408,3.29103 0.32458,3.40358 0.32408,3.51563 0.32408,3.38951 0.32407,3.48799 0.32459,3.51612 0.32407,3.33273 0.32408,3.33324 0.32408,3.3473 0.32458,3.36138 0.32408,3.19255 0.32408,3.16442 0.32458,2.99559 0.32408,3.08 0.32408,2.95339 0.32408,2.88304 0.32458,2.72829 0.32407,2.51776 0.32408,2.53133 0.32458,2.57354 0.32408,2.30673 0.32408,2.22183 0.32408,2.23639 0.32458,2.0952 0.32408,1.84248 0.32408,1.89875 0.32408,1.67365 0.32458,1.58924 0.32408,1.33601 0.32407,1.42041 0.32458,1.22346 0.32408,1.15362 0.32408,1.04057 0.32408,0.87175 0.32458,0.84411 0.32408,0.77327 0.32408,0.67528 0.32408,0.73107 0.32458,0.5346 0.32408,0.59088 0.32407,0.37934 0.32408,0.53461 0.32458,0.30951 0.32408,0.25323 0.32408,0.37935 0.32458,0.30951 0.32408,0.36578 0.32408,0.16882 0.32408,0.15475 0.32458,0.25324 0.32408,0.0141 0.32408,0.0281 0.32458,-0.0141 0.32408,-0.0422 0.32407,-0.0141 0.32408,-0.0703 0.32458,-0.0422 0.32408,-0.11255 0.32408,-0.0141 0.32408,0.0281 0.32458,-0.0844 0.32408,0.14069 0.32408,-0.0563 0.32458,0.0703 0.32408,-0.0703 0.32407,-0.0985 0.32408,0.0141 0.32458,0.0281 0.32408,0.0141 0.32408,0.18289 0.32408,0.0563 0.32458,0.11255 0.32408,0.23866 0.32408,0.21103 0.32458,0.2673 0.32408,0.30951 0.32408,0.42205 0.32407,0.47783 0.32459,0.46426 0.32407,0.40799 0.32408,0.70292 0.32408,0.64716 0.32458,0.59037 0.32408,0.67529 0.32408,0.78784 0.32458,0.70292 0.32408,0.81598 0.32408,0.71699 0.32408,0.81597 0.32458,0.80141 0.32408,0.8014 0.32407,0.91445 0.32408,0.84361 0.32458,0.92853 0.32408,0.78733 0.32408,0.91446 0.32458,0.82954 0.32408,0.7597 0.32408,0.77326 0.32408,0.7175 0.32458,0.66072 0.32408,0.60494 0.32407,0.78734 0.32408,0.46426 0.32458,0.68936 0.32408,0.52003 0.32408,0.60495 0.32458,0.5341 0.32408,0.45019 0.32408,0.43612 0.32408,0.52029 0.32458,0.33754 0.32408,0.39382 0.32408,0.36563 0.32458,0.35161 0.32408,0.39377 0.32407,0.23912 0.32408,0.23906 0.32458,0.28127 0.32408,0.28132 0.32408,0.28127 0.32408,0.19686 0.32458,0.26725 0.32408,0.21093 0.32408,0.12662 0.32408,0.23906 0.32458,0.22504 0.32407,0.21093 0.32408,0.0985 0.32459,0.23907 0.32407,0.0422 0.32408,0.0984 0.32408,0.12657 0.32458,0.0422 0.32408,0.12657 0.32408,0.0422 0.32458,0.18284 0.32408,0.1125 0.32408,0.0843 0.32408,0.15471 0.32458,0.0844 0.32408,0.0984 0.32407,0.0563 0.32408,0.0141 0.32458,0.0844 0.32408,0.12657 0.32408,-0.0421 0.32458,0.0281 0.32408,-0.0563 0.32408,-0.0563 0.32408,0.0985 0.32458,0 0.32408,0.1125 0.32407,0.0422 0.32408,0.0141 0.32458,0.15471 0.32408,-0.0422 0.32408,0.14064 0.32458,-0.0281 0.32408,-0.0422 0.32408,0 0.32408,0.0141 0.32458,0.0281 0.32408,-0.0281 0.32408,0.0563 0.32407,-0.0281 0.32459,0.0844 0.32407,0.0844 0.32408,0.1125 0.32458,0.0703 0.32408,0.0844 0.32408,-0.0703 0.32408,0.0703 0.32458,-0.0281 0.32408,-0.0281 0.32408,-5e-5 0.32408,5e-5 0.32458,0.0422 0.32407,0.0422 0.32408,0.0563 0.32458,0 0.32408,0.0281 0.32408,0.1547 0.32408,-0.0422 0.32458,0 0.32408,0.0422 0.32408,0.0844 0.32408,-0.0281 0.32458,-0.0844 0.32408,0 0.32407,0.014 0.32459,0.0281 0.32407,0.0844 0.32408,0.14063 0.32408,0.0422 0.32458,0.0562 0.32408,0.1125 0.32408,0.0281 0.32408,0.0422 0.32458,0.0844 0.32408,0.0141 0.32408,0.0563 0.32458,-0.0281 0.32407,0.0563 0.32408,-0.0281 0.32408,-0.0281 0.32458,0.0563 0.32408,0.0422 0.32408,0.0844 0.32408,-0.0141 0.32458,0.0984 0.32408,-0.0422 0.32408,0.0281 0.32458,0.0984 0.32408,0.0703 0.32407,-0.014 0.32408,0.014 0.32458,0.0422 0.32408,-0.0281 0.32408,0 0.32458,-0.0703 0.32408,0.0562 0.32408,0 0.32408,-0.0984 0.32458,0.11249 0.32408,-0.0141 0.32408,-0.0844 0.32407,-0.0141 0.32458,0.0422 0.32408,0.0422 0.32408,0.014 0.32458,0.0422 0.32408,-0.0141 0.32408,0.0985 0.32408,-0.0141 0.32458,-0.0422 0.32408,-0.0141 0.32408,0.12657 0.32407,0 0.32459,-0.0703 0.32407,-0.12656 0.32408,0.0562 0.32458,-0.0422 0.32408,-0.0421 0.32408,-0.0563 0.32408,0.0703 0.32458,0 0.32408,0.0141 0.32408,0.0844 0.32408,-0.0563 0.32458,0.0985 0.32408,-0.0563 0.32407,-0.0281 0.32458,0.0422 0.32408,-0.0281 0.32408,0 0.32408,0 0.32458,-0.0141 0.32408,-0.0141 0.32408,0 0.32408,-0.0703 0.32458,-0.0703 0.32408,0.0563 0.32407,0.0422 0.32459,0.0421 0.32407,-0.11249 0.32408,0.0844 0.32408,0.0844 0.32458,-0.0141 0.32408,-0.0141 0.32408,-0.0281 0.32408,0.0844 0.32458,0.0281 0.32408,-0.0703 0.32408,-0.0141 0.32458,0.0985 0.32407,0.1125 0.32408,-0.0141 0.32408,0.0563 0.32458,0.0984 0.32408,0.0422 0.32408,0.0422 0.32408,0.0563 0.32458,-0.0844 0.32408,0.0562 0.32408,-0.0844 0.32458,0.0562 0.32408,0.0563 0.32407,0.0141 0.32408,-0.0141 0.32458,-0.0422 0.32408,-0.0562 0.32408,0.0422 0.32458,0 0.32408,0.0281 0.32408,0 0.32408,-0.0844 0.32458,0.0844 0.32408,0.0703 0.32408,0.18279 0.32407,0.0141 0.32458,-0.0562 0.32408,0.0562 0.32408,0.0141 0.32458,0.0141 0.32408,-0.0141 0.32408,0.0704 0.32408,-0.1125 0.32458,-0.0141 0.32408,0.0141 0.32408,0.0281 0.32407,-0.0141 0.32459,-0.0421 0.32407,0.0141 0.32408,0 0.32458,0.0141 0.32408,-0.0703 0.32408,-0.0141 0.32408,-0.0281 0.32458,0.0281 0.32408,-0.12656 0.32408,0.0703 0.32408,0.0141 0.32458,-0.0141 0.32408,0 0.32407,0.0281 0.32458,0.0563 0.32408,-0.0984 0.32408,0.1125 0.32408,0 0.32458,0.0141 0.32408,-0.0141 0.32408,0 0.32408,-0.0141 0.32458,-0.0563 0.32408,-0.0562 0.32407,-0.0563 0.32459,-0.0422 0.32407,0.0141 0.32408,-0.0281 0.32408,0.0281 0.32458,0.0141 0.32408,0.0844 0.32408,0.0422 0.32408,0.0281 0.32458,0.0141 0.32408,-0.0703 0.32408,0.0563 0.32458,-0.0563 0.32408,-0.0281 0.32407,0 0.28188,0"
       style="fill:none;stroke:#0000ff;stroke-width:0.75367093;stroke-linecap:butt;stroke-linejoin:miter;stroke-miterlimit:10;stroke-opacity:1;stroke-dasharray:none"
       id="path3420-2" />
    <path
       inkscape:connector-curvature="0"
       d="m 557.74827,467.10143 -0.38176,0.0359 -0.38174,0.0717 -0.38175,0 -0.38175,0.0359 -0.38169,0.0359 -0.38176,-0.0478 -0.38175,0.0239 -0.38175,0.0119 -0.38174,0.0239 -0.3817,-0.0478 -0.38175,-0.0955 -0.38175,0 -0.38175,-0.0478 -0.38169,-0.0119 -0.38175,-0.0598 -0.38175,0.13153 -0.38174,0.0119 -0.38176,-0.0119 -0.38169,-0.012 -0.38175,0 -0.38176,-0.012 -0.38174,0 -0.38175,0.012 -0.3817,0.012 -0.38176,0 -0.38174,0.0956 -0.38175,-0.0359 -0.38174,0.0956 -0.3817,-0.0598 -0.38175,-0.0359 -0.38174,0.012 -0.38176,0.012 -0.38174,-0.012 -0.3817,0.0239 -0.38176,0 -0.38174,-0.012 -0.38175,-0.012 -0.38169,0.0478 -0.38176,-0.0239 -0.38175,-0.0478 -0.38174,0.0239 -0.38175,0.0359 -0.3817,-0.0239 -0.38174,-0.0478 -0.38175,0.012 -0.38176,0 -0.38168,-0.0478 -0.38176,-0.0359 -0.38175,0 -0.38175,0.0239 -0.38174,0.0955 -0.3817,-0.012 -0.38176,0.012 -0.38174,0 -0.38175,-0.012 -0.38174,0 -0.38171,0.0359 -0.38175,-0.0717 -0.38174,-0.0239 -0.38176,0.012 -0.38174,-0.13148 -0.3817,-0.012 -0.38175,0.0716 -0.38174,-0.012 -0.38175,0.012 -0.3817,0.0956 -0.38192,0.0359 -0.38134,-0.0716 -0.38194,-0.0359 -0.38192,0.0598 -0.38133,0.1196 -0.38194,-0.10761 -0.38192,-0.0359 -0.38134,0.012 -0.38192,0.0359 -0.38193,0 -0.38192,0 -0.38135,-0.0716 -0.38192,0 -0.38193,-0.0239 -0.38134,-0.0598 -0.38193,-0.0359 -0.38193,-0.0478 -0.38133,-0.0359 -0.38194,-0.0478 -0.38191,-0.0239 -0.38135,0.0119 -0.38192,-0.0359 -0.38193,-0.0359 -0.38134,0.012 -0.38193,0.0359 -0.38192,0 -0.38134,-0.0598 -0.38193,-0.012 -0.38192,-0.0716 -0.38135,0.0239 -0.38192,0 -0.38193,-0.0597 -0.38133,-0.0837 -0.38194,-0.0359 -0.38191,-0.0956 -0.38135,-0.0598 -0.38193,0 -0.38191,-0.10759 -0.38193,0.0359 -0.38135,0 -0.38192,0.0119 -0.38192,-0.14348 -0.38136,0.0239 -0.38192,0 -0.38193,-0.0239 -0.38132,-0.0716 -0.38194,-0.0359 -0.38192,-0.0716 -0.38134,-0.0478 -0.38193,-0.0837 -0.38192,-0.0239 -0.38135,-0.0837 -0.38193,-0.0598 -0.38191,0.0598 -0.38134,-0.0359 -0.38194,-0.0478 -0.38192,0.0239 -0.38134,0.0359 -0.38192,-0.0478 -0.38193,-0.0359 -0.38134,0.0359 -0.38193,-0.0239 -0.38192,-0.0239 -0.38134,-0.0359 -0.38193,-0.0837 -0.38193,-0.0956 -0.38192,-0.0598 -0.38134,0.0478 -0.38193,0 -0.38193,0.012 -0.38134,-0.0598 -0.38192,-0.0359 -0.38193,-0.0478 -0.38134,-0.0956 -0.38193,0.0598 -0.38191,0.012 -0.38135,-0.0239 -0.38192,-0.012 -0.38193,-0.0359 -0.38135,-0.0478 -0.38192,-0.10759 -0.38191,-0.0837 -0.38135,-0.0955 -0.38194,-0.0359 -0.38191,-0.17932 -0.38134,-0.13153 -0.38193,-0.0716 -0.38193,-0.0837 -0.38134,-0.14342 -0.38193,-0.16736 -0.38191,-0.0598 -0.38135,-0.1076 -0.38192,-0.27495 -0.38193,-0.22718 -0.38192,-0.16737 -0.38134,-0.21519 -0.38194,-0.27496 -0.38192,-0.32279 -0.38134,-0.39448 -0.38193,-0.31086 -0.38193,-0.39449 -0.38133,-0.44234 -0.38194,-0.40644 -0.38191,-0.50213 -0.38134,-0.49016 -0.38193,-0.52598 -0.38193,-0.64568 -0.38134,-0.60984 -0.38192,-0.6574 -0.38192,-0.71714 -0.38135,-0.80115 -0.38193,-0.81278 -0.38191,-0.81278 -0.38135,-0.93272 -0.38193,-1.01625 -0.38192,-0.9565 -0.38134,-0.94438 -0.38193,-1.08759 -0.38192,-1.13567 -0.38136,-1.1959 -0.38191,-1.23131 -0.38192,-1.24297 -0.38194,-1.2794 -0.38134,-1.26725 -0.38192,-1.3032 -0.38194,-1.36291 -0.38133,-1.43426 -0.38193,-1.49449 -0.38192,-1.4464 -0.38135,-1.39885 -0.38192,-1.53041 -0.38192,-1.54206 -0.38134,-1.49449 -0.38194,-1.44642 -0.38191,-1.44642 -0.38134,-1.37505 -0.38194,-1.41049 -0.38191,-1.3391 -0.38134,-1.31483 -0.38194,-1.23131 -0.38191,-1.18377 -0.38135,-1.20755 -0.38194,-1.14728 -0.38191,-1.08811 -0.38134,-1.02786 -0.38193,-0.96867 -0.38191,-0.92059 -0.38194,-0.94436 -0.38134,-0.88466 -0.38192,-0.71713 -0.38194,-0.83707 -0.38134,-0.69336 -0.38191,-0.52582 -0.38193,-0.57391 -0.38135,-0.4064 -0.38192,-0.4904 -0.38193,-0.38259 -0.38134,-0.28646 -0.38192,-0.1078 -0.38192,-0.0121 -0.38136,-0.0238 -0.38191,0.0718 -0.38192,0.0956 -0.38136,0.22725 -0.38192,0.23887 -0.38192,0.34666 -0.38135,0.39476 -0.38192,0.2748 -0.38192,0.43019 -0.38134,0.45448 -0.38193,0.56175 -0.38192,0.47826 -0.38135,0.60984 -0.38193,0.64527 -0.38192,0.56226 -0.38192,0.66906 -0.38134,0.58606 -0.38193,0.60982 -0.38193,0.60935 -0.38133,0.62199 -0.38194,0.4899 -0.38193,0.53798 -0.38133,0.45446 -0.38192,0.43018 -0.38193,0.32288 -0.38134,0.15538 -0.38193,0.17916 -0.38193,0.20345 -0.38133,0.0238 -0.38194,-0.15537 -0.38192,-0.14323 -0.38134,-0.33504 -0.38192,-0.41802 -0.38193,-0.50256 -0.38134,-0.71712 -0.38193,-0.63364 -0.38193,-1.05215 -0.38133,-1.06382 -0.38193,-1.24346 -0.38192,-1.33862 -0.38134,-1.51827 -0.38193,-1.80523 -0.38192,-1.72173 -0.38194,-2.05625 -0.38134,-2.12813 -0.38192,-2.27132 -0.38191,-2.33108 -0.38135,-2.46264 -0.38194,-2.57045 -0.38191,-2.6418 -0.38135,-2.74959 -0.38193,-2.77389 -0.38192,-2.91713 -0.38135,-2.96469 -0.0583,-0.62046 -0.70555,-5.51237 -0.38133,-3.20407 -0.38193,-3.08413 -0.38194,-3.41915 -0.38132,-3.19192 -0.38193,-3.35946 -0.38193,-3.39485 -0.38134,-3.25216 -0.38192,-3.28758 -0.38193,-3.13219 -0.38134,-3.06033 -0.38193,-3.02441 -0.38193,-2.84526 -0.38133,-2.76175 -0.38193,-2.7496 -0.38193,-2.5345 -0.38191,-2.35486 -0.38135,-2.28349 -0.38193,-1.99653 -0.38192,-1.92466 -0.38135,-1.57801 -0.38193,-1.51826 -0.38191,-1.24347 -0.38135,-0.99244 -0.38193,-0.86037 -0.38192,-0.47825 -0.38134,-0.41854 -0.38193,-0.21509 -0.38193,-0.0121 -0.38134,0.13158 -0.38191,0.39426 -0.38193,0.65793 -0.38135,0.81276 -0.38192,1.04003 -0.38193,1.30318 -0.38134,1.38669 -0.38192,1.90088 -0.38192,1.86495 -0.38136,2.23542 -0.38191,2.51071 -0.38192,2.64181 -0.38194,2.8336 -0.38134,3.01278 -0.38192,3.09627 -0.38192,3.40701 -0.38135,3.46673 -0.38192,3.52696 -0.38193,3.7299 -0.38135,3.7537 -0.38191,3.90955 -0.38194,3.94499 -0.38135,3.95714 -0.38191,4.06442 -0.38192,4.00522 -0.38135,3.95662 -0.38192,3.93337 -0.38193,3.90905 -0.38134,3.90956 -0.38192,3.78962 -0.38194,3.80177 -0.38134,3.72989 -0.3819,3.62211 -0.38194,3.57452 -0.38134,3.5867 -0.38192,3.3235 -0.38194,3.34729 -0.38134,3.20408 -0.38191,3.07247 -0.38194,2.77339 -0.38192,2.72581 -0.38134,2.54617 -0.38193,2.24754 -0.38192,2.0684 -0.38135,1.88874 -0.38193,1.78145 -0.38192,1.45855 -0.38134,1.30268 -0.38192,1.14782 -0.38193,0.93272 -0.38134,0.789 -0.38192,0.51368 -0.38194,0.41854 -0.38134,0.19131 -0.38192,0.13158 -0.38193,-0.11944 -0.38133,-0.2748 -0.38193,-0.27532 -0.38194,-0.41853 -0.38132,-0.63362 -0.38193,-0.57342 -0.38193,-0.78899 -0.38134,-0.92059 -0.38192,-0.95651 -0.38193,-1.01624 -0.38133,-1.18375 -0.38193,-1.18324 -0.38193,-1.23133 -0.38193,-1.24345 -0.38134,-1.32698 -0.38192,-1.30318 -0.38192,-1.41049 -0.38135,-1.36291 -0.38193,-1.39883 -0.38192,-1.33862 -0.38134,-1.33911 -0.38193,-1.18376 -0.38192,-1.1473 -0.38135,-1.10026 -0.38192,-0.94436 -0.38192,-0.90844 -0.38135,-0.76521 -0.38191,-0.58556 -0.38194,-0.64576 -0.38134,-0.39475 -0.38192,-0.32238 -0.38193,-0.22724 -0.38134,-0.10779 -0.38193,-0.0117 -0.38192,0.13106 -0.38135,0.25155 -0.38192,0.39423 -0.38193,0.50205 -0.38134,0.6817 -0.38193,0.74092 -0.38191,0.95652 -0.38134,1.04002 -0.38193,1.21969 -0.38192,1.19537 -0.38194,1.32698 -0.38134,1.36291 -0.38192,1.57799 -0.38193,1.48235 -0.38134,1.60179 -0.38192,1.56634 -0.38194,1.59015 -0.38132,1.61393 -0.38194,1.63771 -0.38192,1.67365 -0.38134,1.55421 -0.38193,1.61394 -0.38192,1.70957 -0.38134,1.52992 -0.38193,1.59014 -0.38193,1.67364 -0.38133,1.578 -0.38194,1.50613 -0.38192,1.48285 -0.38134,1.41049 -0.38192,1.38668 -0.38193,1.24347 -0.38192,1.21917 -0.38135,1.13588 -0.38193,1.13572 -0.38191,0.96836 -0.38134,0.93247 -0.38194,0.95637 -0.38192,0.81292 -0.38134,0.88471 -0.38193,0.65751 -0.38192,0.72923 -0.38135,0.62168 -0.38191,0.56187 -0.38192,0.44232 -0.38135,0.4065 -0.38193,0.28691 -0.38193,0.17931 -0.38134,0 -0.38193,0.20324 -0.38191,0 -0.38136,-0.0716 -0.38192,0 -0.38191,-0.13152 -0.38135,-0.16737 -0.38193,-0.15543 -0.38192,-0.29884 -0.38134,-0.22713 -0.38194,-0.29892 -0.38191,-0.38254 -0.38134,-0.28692 -0.38194,-0.38254 -0.38192,-0.43038 -0.38192,-0.38255 -0.38135,-0.38256 -0.38192,-0.44233 -0.38192,-0.43038 -0.38134,-0.45433 -0.38193,-0.39448 -0.38193,-0.40645 -0.38134,-0.31084 -0.38193,-0.52603 -0.38192,-0.27497 -0.38135,-0.28689 -0.38191,-0.35868 -0.38193,-0.25102 -0.38134,-0.23913 -0.38192,-0.20319 -0.38194,-0.0837 -0.38134,-0.21518 -0.38192,-0.0837 -0.38192,-0.0716 -0.38136,-0.0239 -0.38191,0 -0.38193,-0.0359 -0.38135,0.13149 -0.38191,0.0717 -0.38194,0.15542 -0.38134,0.14341 -0.38192,0.25109 -0.38192,0.19125 -0.38193,0.28696 -0.38134,0.20319 -0.38192,0.2989 -0.38194,0.27495 -0.38133,0.27498 -0.38193,0.35864 -0.38192,0.25104 -0.38133,0.27496 -0.38194,0.27496 -0.38193,0.27495 -0.38133,0.2989 -0.38194,0.26302 -0.38193,0.28691 -0.38133,0.2989 -0.38192,0.25102 -0.38193,0.33472 -0.38134,0.20325 -0.38193,0.27496 -0.38193,0.17931 -0.38133,0.25108 -0.38194,0.1913 -0.38192,0.21518 -0.38134,0.22714 -0.38192,0.11954 -0.38193,0.23907 -0.38134,0.10759 -0.38192,0.10761 -0.38194,0.1076 -0.38191,0.0359 -0.38135,0.0478 -0.38193,0.0239 -0.38191,0 -0.38135,0.0359 -0.38193,-0.0598 -0.38192,-0.0478 -0.38134,-0.0478 -0.38194,-0.0836 -0.3819,-0.0956 -0.38135,-0.0598 -0.38193,-0.10758 -0.38192,-0.0478 -0.38135,-0.0478 -0.38193,-0.14349 -0.38191,-0.0955 -0.38136,-0.14348 -0.38191,-0.14348 -0.38192,-0.16735 -0.38135,-0.13148 -0.38193,-0.0598 -0.38192,-0.14347 -0.38134,-0.19131 -0.38194,-0.14342 -0.38191,-0.15542 -0.38192,-0.11953 -0.38136,-0.15543 -0.38191,-0.11953 -0.38193,-0.0239 -0.38135,-0.23908 -0.38192,-0.13147 -0.38192,-0.012 -0.38136,0.012 -0.3819,-0.0837 -0.38193,-0.0359 -0.38135,0.0239 -0.38192,0.0359 -0.38193,0.0478 -0.38134,-0.012 -0.38193,-0.0239 -0.38192,0.0597 -0.38134,0.0478 -0.38192,-0.012 -0.38194,0.0359 -0.38134,0.0716 -0.38192,0.15543 -0.38193,0.012 -0.38135,0.0717 -0.38191,0.0716 -0.38192,0.1076 -0.38135,0.11954 -0.38192,0.15542 -0.38193,0.11954 -0.38193,0.0478 -0.38134,0.0359 -0.38192,0.1315 -0.38193,0.0718 -0.38134,0.14343 -0.38192,0.012 -0.38194,0.22717 -0.38133,0.0598 -0.38193,0.1076 -0.38192,0.0239 -0.38135,0.14349 -0.38192,0.10758 -0.38192,0.0598 -0.38134,0.0836 -0.38193,-0.0239 -0.38193,0.0359 -0.38134,0 -0.38193,-0.0359 -0.38192,0.0359 -0.38133,0.0598 -0.38194,0.0359 -0.38193,0.012 -0.38133,0.0359 -0.38194,0.0239 -0.38192,-0.012 -0.38134,0.012 -0.38192,0.012 -0.38193,0.0598 -0.38192,-0.0598 -0.38134,0.0119 -0.38194,-0.0598 -0.38192,-0.0598 -0.38134,-0.012 -0.38192,-0.0717 -0.38192,-0.0836 -0.38135,-0.0478 -0.38192,-0.0836 -0.38193,-0.0478 -0.38134,-0.0837 -0.38194,0.10761 -0.3819,-0.0359 -0.38136,-0.0598 -0.38192,0 -0.38192,-0.0359 -0.38135,-0.0837 -0.38192,-0.0478 -0.38192,-0.0359 -0.38135,-0.0599 -0.38193,-0.0359 -0.38191,-0.0359 -0.38134,-0.0119 -0.38194,-0.0239 -0.38192,-0.0239 -0.38134,-0.0239 -0.38194,0 -0.38191,-0.012 -0.38192,-0.0119 -0.38135,0.0119 -0.38192,0.0478 -0.38193,0.012 -0.38135,0.0598 -0.38192,-0.0359 -0.38192,0.0598 -0.38136,0.14346 -0.3819,0 -0.38193,0.0598 -0.38135,0.0239 -0.38191,0 -0.38194,0.0359 -0.38134,-0.0478 -0.38192,-0.0359 -0.38193,0.0359 -0.38135,0.0478 -0.38191,-0.012 -0.38193,0.0716 -0.38135,0.0598 -0.38192,-0.0239 -0.38193,-0.0478 -0.38134,0.0478 -0.38192,0.0119 -0.38192,-0.0359 -0.38194,0.0598 -0.38133,0.0359 -0.38193,0.0956 -0.38193,0.0598 -0.38134,0 -0.38192,0 -0.38193,0.10757 -0.38133,-0.0478 -0.38193,0.0359 -0.38194,0.0359 -0.38132,-0.0239 -0.38194,-0.0598 -0.38193,0 -0.38134,-0.012 -0.38192,-0.0716 -0.38192,-0.0478 -0.38134,-0.0239 -0.38193,0.0359 -0.38193,0 -0.38133,-0.0598 -0.38194,0.0359 -0.38192,0.0359 -0.38134,-0.0239 -0.38192,-0.0359 -0.38193,-0.012 -0.38134,0.0478 -0.38193,-0.0598 -0.38193,-0.0239 -0.38191,0.0478 -0.38135,-0.012 -0.38193,-0.0598 -0.38192,-0.0478 -0.38134,-0.0836 -0.38194,-0.0239 -0.38191,-0.0478 -0.38135,-0.11954 -0.38193,0 -0.38191,0.012 -0.38135,-0.0239 -0.38192,-0.0598 -0.33178,-0.0104"
       style="fill:none;stroke:#ff6600;stroke-width:0.81484425;stroke-linecap:butt;stroke-linejoin:miter;stroke-miterlimit:10;stroke-opacity:1;stroke-dasharray:none"
       id="path3967-1" />
    <path
       style="fill:none;stroke:#000000;stroke-width:1.89999998;stroke-linecap:butt;stroke-linejoin:miter;stroke-miterlimit:4;stroke-opacity:1;stroke-dasharray:none;marker-end:url(#Arrow1Lend)"
       d="m 85.862966,216.96603 98.489874,0"
       id="path4056"
       inkscape:path-effect="#path-effect4058"
       inkscape:original-d="m 85.862966,216.96603 c 98.489874,0 98.489874,0 98.489874,0"
       inkscape:connector-curvature="0" />
    <path
       style="fill:none;stroke:#000000;stroke-width:1.89999998;stroke-linecap:butt;stroke-linejoin:miter;stroke-miterlimit:4;stroke-opacity:1;stroke-dasharray:none;marker-end:url(#Arrow1Lend)"
       d="m 481.59021,217.97618 -98.48987,0"
       id="path4056-3"
       inkscape:path-effect="#path-effect4058-6"
       inkscape:original-d="m 481.59021,217.97618 c -98.48987,0 -98.48987,0 -98.48987,0"
       inkscape:connector-curvature="0" />
    <text
       xml:space="preserve"
       style="font-size:40px;font-style:normal;font-weight:normal;line-height:125%;letter-spacing:0px;word-spacing:0px;fill:#000000;fill-opacity:1;stroke:none;font-family:Sans"
       x="109.09647"
       y="200.80359"
       id="text5312"
       sodipodi:linespacing="125%"><tspan
         sodipodi:role="line"
         id="tspan5314"
         x="109.09647"
         y="200.80359"
         style="font-size:22px">Blue</tspan></text>
    <text
       xml:space="preserve"
       style="font-size:40px;font-style:normal;font-weight:normal;line-height:125%;letter-spacing:0px;word-spacing:0px;fill:#000000;fill-opacity:1;stroke:none;font-family:Sans"
       x="399.93323"
       y="201.93417"
       id="text5312-0"
       sodipodi:linespacing="125%"><tspan
         sodipodi:role="line"
         id="tspan5314-8"
         x="399.93323"
         y="201.93417"
         style="font-size:22px">Yellow</tspan></text>
    <text
       xml:space="preserve"
       style="font-size:40px;font-style:normal;font-weight:normal;line-height:125%;letter-spacing:0px;word-spacing:0px;fill:#000000;fill-opacity:1;stroke:none;font-family:Sans"
       x="116.58971"
       y="489.26236"
       id="text5312-1"
       sodipodi:linespacing="125%"><tspan
         sodipodi:role="line"
         id="tspan5314-6"
         x="116.58971"
         y="489.26236"
         style="font-size:22px">Blue</tspan></text>
    <text
       xml:space="preserve"
       style="font-size:40px;font-style:normal;font-weight:normal;line-height:125%;letter-spacing:0px;word-spacing:0px;fill:#000000;fill-opacity:1;stroke:none;font-family:Sans"
       x="365.9899"
       y="496.95895"
       id="text5312-0-6"
       sodipodi:linespacing="125%"><tspan
         sodipodi:role="line"
         id="tspan5314-8-3"
         x="365.9899"
         y="496.95895"
         style="font-size:22px">Yellow (Mirror)</tspan></text>
    <path
       style="fill:none;stroke:#000000;stroke-width:1.89999998;stroke-linecap:butt;stroke-linejoin:miter;stroke-miterlimit:4;stroke-opacity:1;stroke-dasharray:none;marker-end:url(#Arrow1Lend)"
       d="m 89.524781,512.94072 98.489869,0"
       id="path4056-2"
       inkscape:path-effect="#path-effect4058-8"
       inkscape:original-d="m 89.524781,512.94072 c 98.489869,0 98.489869,0 98.489869,0"
       inkscape:connector-curvature="0" />
    <path
       style="fill:none;stroke:#000000;stroke-width:1.89999998;stroke-linecap:butt;stroke-linejoin:miter;stroke-miterlimit:4;stroke-opacity:1;stroke-dasharray:none;marker-end:url(#Arrow1Lend)"
       d="m 485.25202,513.95087 -98.48987,0"
       id="path4056-3-1"
       inkscape:path-effect="#path-effect4058-6-4"
       inkscape:original-d="m 485.25202,513.95087 c -98.48987,0 -98.48987,0 -98.48987,0"
       inkscape:connector-curvature="0" />
    <text
       xml:space="preserve"
       style="font-size:40px;font-style:normal;font-weight:normal;line-height:125%;letter-spacing:0px;word-spacing:0px;fill:#000000;fill-opacity:1;stroke:none;font-family:Sans"
       x="468.20569"
       y="77.56498"
       id="text5405"
       sodipodi:linespacing="125%"><tspan
         sodipodi:role="line"
         x="468.20569"
         y="77.56498"
         style="font-size:16px"
         id="tspan5413">Bunches collide exactly as they </tspan><tspan
         sodipodi:role="line"
         x="468.20569"
         y="97.56498"
         style="font-size:16px"
         id="tspan5417">appear in the WCM data</tspan></text>
    <text
       xml:space="preserve"
       style="font-size:34.64709091px;font-style:normal;font-weight:normal;line-height:125%;letter-spacing:0px;word-spacing:0px;fill:#000000;fill-opacity:1;stroke:none;font-family:Sans"
       x="472.42377"
       y="317.83966"
       id="text5405-7"
       sodipodi:linespacing="125%"><tspan
         sodipodi:role="line"
         x="472.42377"
         y="317.83966"
         style="font-size:13.85883617px"
         id="tspan5417-0">One bunch (here iI choose yellow) </tspan><tspan
         sodipodi:role="line"
         x="472.42377"
         y="335.16321"
         style="font-size:13.85883617px"
         id="tspan5449">collides with the other, but is flipped</tspan><tspan
         sodipodi:role="line"
         x="472.42377"
         y="352.48676"
         style="font-size:13.85883617px"
         id="tspan5451">due to the fact that beams circulate</tspan><tspan
         sodipodi:role="line"
         x="472.42377"
         y="369.8103"
         style="font-size:13.85883617px"
         id="tspan5453">in opposite directions</tspan></text>
  </g>
</svg>
